<svg xmlns="http://www.w3.org/2000/svg" viewBox="0 0 49 49"><path d="M39.914,0H37.5h-28h-9v49h7h33h8V8.586L39.914,0z M35.5,2v14h-24V2H35.5z M9.5,47V28h29v19H9.5z M46.5,47h-6V26h-33v21h-5 V2h7v16h28V2h1.586L46.5,9.414V47z"/><path d="M13.5 33h7c.553 0 1-.447 1-1s-.447-1-1-1h-7c-.553 0-1 .447-1 1S12.947 33 13.5 33zM23.5 35h-10c-.553 0-1 .447-1 1s.447 1 1 1h10c.553 0 1-.447 1-1S24.053 35 23.5 35zM25.79 35.29c-.181.189-.29.45-.29.71s.109.52.29.71C25.979 36.89 26.229 37 26.5 37c.26 0 .52-.11.71-.29.18-.19.29-.45.29-.71s-.11-.521-.29-.71C26.84 34.92 26.16 34.92 25.79 35.29zM33.5 4h-6v10h6V4zM31.5 12h-2V6h2V12z"/></svg>